<svg xmlns="http://www.w3.org/2000/svg" xmlns:xlink="http://www.w3.org/1999/xlink" viewBox="0 0 280.26 370.5"><defs><style>.cls-1{fill:url(#linear-gradient);}.cls-2{fill:url(#linear-gradient-2);}.cls-3{fill:url(#linear-gradient-3);}.cls-4{fill:url(#linear-gradient-4);}.cls-5{fill:url(#linear-gradient-5);}.cls-6{fill:url(#linear-gradient-6);}.cls-7{fill:url(#linear-gradient-7);}</style><linearGradient id="linear-gradient" x1="-162.7" y1="334.04" x2="-135.47" y2="306.81" gradientTransform="matrix(1.64, 0.71, -1.64, 0.71, 908.07, 63.94)" gradientUnits="userSpaceOnUse"><stop offset="0" stop-color="#58b947"/><stop offset="0.08" stop-color="#53b346"/><stop offset="0.69" stop-color="#2a8a3e" stop-opacity="0.96"/><stop offset="1" stop-color="#1b7a3b" stop-opacity="0.95"/></linearGradient><linearGradient id="linear-gradient-2" x1="7.61" y1="232.65" x2="220.58" y2="19.68" gradientTransform="translate(117.34 -61.08) rotate(45)" xlink:href="#linear-gradient"/><linearGradient id="linear-gradient-3" x1="-63.21" y1="187.4" x2="2.07" y2="122.13" gradientTransform="matrix(0.97, 0.71, -0.97, 0.71, 299.78, 81.36)" xlink:href="#linear-gradient"/><linearGradient id="linear-gradient-4" x1="-45.6" y1="76.9" x2="90.16" y2="-58.87" gradientTransform="matrix(0.78, 0.71, -0.78, 0.71, 103.28, 117.33)" xlink:href="#linear-gradient"/><linearGradient id="linear-gradient-5" x1="-1302.36" y1="1521.48" x2="-1089.39" y2="1308.51" gradientTransform="matrix(0.72, 0.71, -0.72, 0.71, 2040.12, 105.38)" xlink:href="#linear-gradient"/><linearGradient id="linear-gradient-6" x1="-1008.27" y1="1111.33" x2="-943" y2="1046.06" gradientTransform="matrix(1.01, 0.71, -1.01, 0.71, 2235.46, 126.99)" xlink:href="#linear-gradient"/><linearGradient id="linear-gradient-7" x1="-1228.73" y1="1238.89" x2="-1092.97" y2="1103.13" gradientTransform="matrix(0.8, 0.71, -0.8, 0.71, 2029.24, 222.45)" xlink:href="#linear-gradient"/></defs><g id="Layer_2" data-name="Layer 2"><g id="Layer_1-2" data-name="Layer 1"><rect class="cls-1" x="94.3" y="177.19" width="89.21" height="15.82" rx="7.91" transform="translate(-90.2 152.43) rotate(-45)"/><rect class="cls-2" x="-41.79" y="100.89" width="301.19" height="15.82" rx="7.91" transform="translate(-45.07 108.8) rotate(-45)"/><rect class="cls-3" x="55.82" y="161.27" width="127.08" height="15.82" rx="7.91" transform="translate(-84.67 133.95) rotate(-45)"/><rect class="cls-4" x="7.8" y="131.54" width="211.63" height="15.82" rx="7.91" transform="translate(-65.33 121.18) rotate(-45)"/><rect class="cls-5" x="17.53" y="252.41" width="305.08" height="15.82" rx="7.91" transform="translate(474.41 324.14) rotate(135)"/><rect class="cls-6" x="93.65" y="191.95" width="131.91" height="15.82" rx="7.91" transform="translate(413.79 228.33) rotate(135)"/><rect class="cls-7" x="56.78" y="221.72" width="217.04" height="15.82" rx="7.91" transform="translate(444.56 275.11) rotate(135)"/></g></g></svg>